<svg version="1.2" xmlns="http://www.w3.org/2000/svg" viewBox="0 0 151 151" width="151" height="151">
	<title>path1-svg</title>
	<style>
		tspan { white-space:pre } 
		.s0 { fill: #000000 } 
		.t1 { font-size: 18px;fill: #ececec;font-family: "'. Keyboard'" } 
		.s2 { fill: #ff00ff } 
		.s3 { fill: #800000 } 
		.s4 { fill: #00ff00 } 
		.s5 { fill: #ff2a2a } 
		.s6 { fill: #00ffff } 
		.s7 { fill: #ff8080 } 
		.s8 { fill: #803300 } 
		.s9 { fill: #502d16 } 
	</style>
	<g id="layer1">
		<path id="path1" class="s0" d="m75.1 150.2c-41.5 0-75.1-33.6-75.1-75.1 0-41.5 33.6-75.1 75.1-75.1 41.5 0 75.1 33.6 75.1 75.1 0 41.5-33.6 75.1-75.1 75.1z"/>
		<text id="tspan2" style="transform: matrix(1,0,0,1,18.72,49.475)" >
			<tspan x="0" y="0" class="t1">BAWILANDIA
</tspan>
		</text>
		<path id="path2-99" class="s2" d="m119.3 129.6c-8.6 0-15.6-6.9-15.6-15.5 0-8.6 7-15.5 15.6-15.5 8.6 0 15.5 6.9 15.5 15.5 0 8.6-6.9 15.5-15.5 15.5z"/>
		<path id="path2-99-9" class="s3" d="m103.8 142c-8.6 0-15.5-7-15.5-15.6 0-8.5 6.9-15.5 15.5-15.5 8.6 0 15.5 7 15.5 15.5 0 8.6-6.9 15.6-15.5 15.6z"/>
		<path id="path2-99-2" class="s4" d="m80.8 150.6c-8.6 0-15.5-6.9-15.5-15.5 0-8.6 6.9-15.5 15.5-15.5 8.6 0 15.6 6.9 15.6 15.5 0 8.6-7 15.5-15.6 15.5z"/>
		<path id="path2-99-5" class="s5" d="m52.4 146.1c-8.5 0-15.5-7-15.5-15.6 0-8.5 7-15.5 15.5-15.5 8.6 0 15.6 7 15.6 15.5 0 8.6-7 15.6-15.6 15.6z"/>
		<path id="path2-99-7" class="s6" d="m30.5 129.5c-8.6 0-15.6-6.9-15.6-15.5 0-8.6 7-15.5 15.6-15.5 8.6 0 15.5 6.9 15.5 15.5 0 8.6-6.9 15.5-15.5 15.5z"/>
		<path id="path2-99-4" class="s7" d="m53 118.8c-8.6 0-15.5-6.9-15.5-15.5 0-8.6 6.9-15.5 15.5-15.5 8.6 0 15.5 6.9 15.5 15.5 0 8.6-6.9 15.5-15.5 15.5z"/>
		<path id="path2-99-6" class="s8" d="m79 120.1c-8.6 0-15.5-6.9-15.5-15.5 0-8.6 6.9-15.6 15.5-15.6 8.6 0 15.5 7 15.5 15.6 0 8.6-6.9 15.5-15.5 15.5z"/>
		<path id="path2-99-69" class="s9" d="m104.4 109.4c-8.6 0-15.5-7-15.5-15.6 0-8.5 6.9-15.5 15.5-15.5 8.6 0 15.5 7 15.5 15.5 0 8.6-6.9 15.6-15.5 15.6z"/>
	</g>
</svg>